<?xml version="1.0" encoding="UTF-8"?>
<svg enable-background="new 0 0 122.879 119.799" version="1.1" viewBox="0 0 122.88 119.8" xml:space="preserve" xmlns="http://www.w3.org/2000/svg"><path d="m49.988 0h0.016v7e-3c13.799 4e-3 26.294 5.601 35.336 14.645 9.027 9.031 14.619 21.515 14.628 35.303h7e-3v0.073h-7e-3c-5e-3 5.557-0.917 10.905-2.594 15.892-0.281 0.837-0.575 1.641-0.877 2.409v7e-3c-1.446 3.66-3.315 7.12-5.547 10.307l29.082 26.139 0.018 0.016 0.157 0.146 0.011 0.011c1.642 1.563 2.536 3.656 2.649 5.78 0.11 2.1-0.543 4.248-1.979 5.971l-0.011 0.016-0.175 0.203-0.035 0.035-0.146 0.16-0.016 0.021c-1.565 1.642-3.654 2.534-5.78 2.646-2.097 0.111-4.247-0.54-5.971-1.978l-0.015-0.011-0.204-0.175-0.029-0.024-29.745-26.734c-0.88 0.62-1.778 1.209-2.687 1.765-1.233 0.755-2.51 1.466-3.813 2.115-6.699 3.342-14.269 5.222-22.272 5.222v7e-3h-0.016v-7e-3c-13.799-4e-3 -26.296-5.601-35.338-14.645-9.03-9.031-14.619-21.517-14.628-35.301h-7e-3v-0.049h7e-3c4e-3 -13.799 5.601-26.296 14.645-35.338 9.031-9.026 21.515-14.618 35.303-14.627v-7e-3h0.033zm0.016 11.21v7e-3h-0.049v-7e-3c-10.686 7e-3 -20.372 4.35-27.384 11.359-7.011 7.009-11.358 16.705-11.361 27.404h7e-3v0.049h-7e-3c7e-3 10.686 4.347 20.367 11.359 27.381 7.009 7.012 16.705 11.359 27.403 11.361v-7e-3h0.049v7e-3c10.686-7e-3 20.368-4.348 27.382-11.359 7.011-7.009 11.358-16.702 11.36-27.4h-6e-3v-0.049h6e-3c-6e-3 -10.686-4.35-20.372-11.358-27.384-7.009-7.012-16.702-11.359-27.401-11.362z" fill="#faa300"/></svg>
